<?xml version="1.0" encoding="UTF-8"?><svg id="Layer_1" xmlns="http://www.w3.org/2000/svg" xmlns:xlink="http://www.w3.org/1999/xlink" viewBox="0 0 11.67 11.67"><defs><style>.cls-1{fill:none;}.cls-2{fill:url(#linear-gradient);}</style><linearGradient id="linear-gradient" x1="2.45" y1="5.84" x2="9.02" y2="5.84" gradientTransform="translate(.1)" gradientUnits="userSpaceOnUse"><stop offset="0" stop-color="#682c91"/><stop offset=".73" stop-color="#1c97d7"/><stop offset="1" stop-color="#00c1f3"/></linearGradient></defs><path class="cls-2" d="m2.88,10.47c-.09,0-.17-.03-.23-.1-.07-.07-.1-.14-.1-.23v-5.76c0-.09.03-.17.1-.23.07-.07.14-.1.23-.1h2.21c.09,0,.17.03.23.1.07.07.1.14.1.23v5.76c0,.09-.03.17-.1.23-.07.07-.14.1-.23.1h-2.21Zm.06-7.1c-.09,0-.17-.03-.23-.1-.07-.07-.1-.14-.1-.23v-1.49c0-.09.03-.17.1-.23s.14-.1.23-.1h3.67c.09,0,.04.16.11.23.07.07-.24.07-.24.16l.19-.06c0,.09.2,1.5.13,1.56s.04.28-.05.28h-3.8Z"/><path class="cls-2" d="m6.58,10.47c-.09,0-.17-.03-.23-.1-.07-.07-.1-.14-.1-.23v-5.76c0-.09.03-.17.1-.23.07-.07.14-.1.23-.1h2.21c.09,0,.17.03.23.1.07.07.1.14.1.23v5.76c0,.09-.03.17-.1.23-.07.07-.14.1-.23.1h-2.21Zm.06-7.1c-.09,0-.17-.03-.23-.1-.07-.07-.1-.14-.1-.23v-1.49c0-.09.03-.17.1-.23s.14-.1.23-.1h2.09c.09,0,.17.03.23.1.07.07.1.14.1.23v1.49c0,.09-.03.17-.1.23s-.14.1-.23.1h-2.09Z"/><rect class="cls-1" width="11.67" height="11.67" rx="1.64" ry="1.64"/></svg>