<svg id="Layer_2" data-name="Layer 2" xmlns="http://www.w3.org/2000/svg" viewBox="0 0 30.29 12.49"><defs><linearGradient id="linear-gradient" x1="0" y1="6.25" x2="30.29" y2="6.25" gradientUnits="userSpaceOnUse"><stop offset="0" stop-color="#682c91"/><stop offset=".73" stop-color="#1c97d7"/><stop offset="1" stop-color="#00c1f3"/></linearGradient><style>.cls-1{fill:url(#linear-gradient)}</style></defs><g id="Layer_1-2" data-name="Layer 1"><path class="cls-1" d="M3.95 10.33c-.89 0-1.62-.12-2.2-.36-.58-.24-1.01-.56-1.3-.95s-.44-.81-.46-1.25c0-.07.03-.13.08-.19s.11-.08.19-.08h2.28c.13 0 .23.02.29.05.07.04.14.09.22.15.08.06.16.11.25.15.08.04.18.08.29.1s.23.03.35.03c.27 0 .49-.03.65-.09s.25-.14.25-.25c0-.1-.05-.18-.14-.24-.09-.06-.25-.12-.47-.17-.22-.05-.54-.1-.94-.15a6.4 6.4 0 0 1-1.64-.44c-.46-.21-.82-.49-1.07-.86C.33 5.42.2 4.97.2 4.44S.35 3.42.66 3c.31-.42.74-.74 1.28-.97s1.19-.35 1.91-.35c.6 0 1.13.08 1.6.23.46.16.86.36 1.18.61.32.25.56.52.73.81.17.29.26.56.26.83 0 .07-.03.13-.08.19s-.11.08-.17.08h-2.4c-.11 0-.2-.02-.27-.05a.853.853 0 0 1-.21-.14.757.757 0 0 0-.22-.14.998.998 0 0 0-.41-.08c-.2 0-.35.03-.44.09-.09.06-.14.14-.14.25 0 .07.04.14.11.2s.2.12.4.17c.19.05.47.1.83.14.8.1 1.44.25 1.93.46.48.21.84.49 1.06.85s.33.79.33 1.31c0 .58-.17 1.09-.52 1.51-.35.42-.82.75-1.42.98s-1.28.34-2.04.34Zm4.77 2.16c-.09 0-.16-.03-.23-.1a.326.326 0 0 1-.1-.23V4.29c0-.09.03-.16.1-.23.06-.06.14-.1.23-.1h2.04c.09 0 .16.03.23.1s.1.14.1.23v.36c.18-.23.42-.42.71-.58s.65-.23 1.06-.23c.35 0 .68.05.97.15s.56.26.79.48c.23.22.41.51.55.86.14.35.22.78.24 1.28 0 .18.01.33.01.47s0 .3-.01.48c-.02.47-.09.88-.23 1.23s-.32.63-.55.86c-.23.22-.49.39-.79.5-.3.11-.63.17-.98.17s-.64-.06-.91-.17c-.27-.11-.5-.3-.68-.55v2.56c0 .09-.03.16-.1.23s-.14.1-.23.1H8.72Zm3.14-4.31c.15 0 .27-.03.35-.08.08-.06.14-.14.17-.24.04-.1.06-.23.08-.37.02-.26.02-.53 0-.79-.02-.14-.04-.27-.08-.37-.04-.1-.09-.18-.17-.24s-.2-.08-.35-.08c-.14 0-.26.03-.35.08a.5.5 0 0 0-.19.24c-.04.1-.06.23-.07.37 0 .18-.01.32-.01.44s0 .27.01.45c0 .13.03.24.08.32.04.09.11.16.19.2.08.05.19.07.33.07Zm4.51.82c-.09 0-.16-.03-.23-.1a.326.326 0 0 1-.1-.23V3.08c0-.09.03-.16.1-.23.06-.06.14-.1.23-.1h2.15c.09 0 .16.03.23.1.06.06.1.14.1.23v5.59c0 .09-.03.16-.1.23-.06.06-.14.1-.23.1h-2.15Zm.06-6.9c-.09 0-.16-.03-.23-.1a.326.326 0 0 1-.1-.23V.32c0-.09.03-.16.1-.23s.14-.1.23-.1h3.56c.09 0 .04.16.1.22.06.06-.23.07-.23.16l.18-.06c0 .09.19 1.45.13 1.52s.04.27-.05.27h-3.69Z"/><path class="cls-1" d="M19.96 9c-.09 0-.16-.03-.23-.1a.326.326 0 0 1-.1-.23V3.08c0-.09.03-.16.1-.23.06-.06.14-.1.23-.1h2.15c.09 0 .16.03.23.1.06.06.1.14.1.23v5.59c0 .09-.03.16-.1.23-.06.06-.14.1-.23.1h-2.15Zm.06-6.9c-.09 0-.16-.03-.23-.1a.326.326 0 0 1-.1-.23V.32c0-.09.03-.16.1-.23s.14-.1.23-.1h2.03c.09 0 .16.03.23.1.06.06.1.14.1.23v1.45c0 .09-.03.16-.1.23s-.14.1-.23.1h-2.03Zm3.52 8.11c-.09 0-.16-.03-.23-.1a.326.326 0 0 1-.1-.23V4.29c0-.09.03-.16.1-.23.06-.06.14-.1.23-.1h2.1c.09 0 .16.03.23.1s.1.14.1.23v.4c.2-.23.48-.43.83-.59.35-.16.74-.25 1.16-.25s.79.1 1.14.29c.35.19.64.49.86.89.22.4.33.92.33 1.55v3.31c0 .09-.03.16-.1.23s-.14.1-.23.1h-2.29c-.09 0-.16-.03-.23-.1a.326.326 0 0 1-.1-.23V6.66c0-.22-.05-.38-.16-.49-.1-.11-.25-.17-.44-.17s-.34.06-.44.17c-.1.11-.16.28-.16.49v3.23c0 .09-.03.16-.1.23-.06.06-.14.1-.23.1h-2.28Z"/></g></svg>